<svg width="186" height="40" viewBox="0 0 186 40" fill="none" xmlns="http://www.w3.org/2000/svg">
<g clip-path="url(#clip0_392_172)">
<path d="M54.5309 8.11518C56.9607 8.11518 58.9793 8.73724 60.5868 9.98138C62.1943 11.2255 63.2783 12.9126 63.8391 15.0428H60.4466C59.9794 13.8363 59.2317 12.8843 58.2037 12.1869C57.1944 11.4706 55.9514 11.1124 54.4748 11.1124C53.2973 11.1124 52.2412 11.4046 51.3066 11.989C50.3908 12.5733 49.6618 13.4122 49.1198 14.5055C48.5964 15.58 48.3347 16.843 48.3347 18.2945C48.3347 19.7271 48.5964 20.9901 49.1198 22.0835C49.6618 23.1579 50.3908 23.9874 51.3066 24.5717C52.2412 25.1561 53.2973 25.4483 54.4748 25.4483C55.9514 25.4483 57.1944 25.0995 58.2037 24.4021C59.2317 23.6857 59.9794 22.7338 60.4466 21.5462H63.8391C63.2783 23.6763 62.1943 25.3635 60.5868 26.6076C58.9793 27.8329 56.9607 28.4455 54.5309 28.4455C52.6618 28.4455 51.0076 28.0214 49.5684 27.1731C48.1291 26.306 47.017 25.109 46.232 23.5821C45.447 22.0363 45.0544 20.2738 45.0544 18.2945C45.0544 16.3152 45.447 14.5621 46.232 13.0352C47.017 11.4895 48.1291 10.283 49.5684 9.41586C51.0076 8.54876 52.6618 8.11518 54.5309 8.11518ZM74.093 12.4979C75.5885 12.4979 76.9343 12.8184 78.1303 13.4593C79.327 14.1002 80.2611 15.0239 80.934 16.2303C81.6069 17.4368 81.9433 18.8506 81.9433 20.4717C81.9433 22.1117 81.6069 23.535 80.934 24.7414C80.2611 25.9478 79.327 26.8715 78.1303 27.5124C76.9343 28.1533 75.5885 28.4738 74.093 28.4738C72.5982 28.4738 71.2524 28.1533 70.0557 27.5124C68.8782 26.8715 67.9439 25.9478 67.2523 24.7414C66.5794 23.5161 66.243 22.0929 66.243 20.4717C66.243 18.8506 66.5794 17.4368 67.2523 16.2303C67.9439 15.0239 68.8782 14.1002 70.0557 13.4593C71.2524 12.8184 72.5982 12.4979 74.093 12.4979ZM74.093 15.2972C73.2711 15.2972 72.5141 15.4857 71.822 15.8628C71.1307 16.2398 70.57 16.8241 70.1398 17.6159C69.7288 18.3888 69.523 19.3407 69.523 20.4717C69.523 21.6216 69.7288 22.583 70.1398 23.3559C70.57 24.1288 71.1307 24.7037 71.822 25.0807C72.5141 25.4577 73.2711 25.6462 74.093 25.6462C74.9156 25.6462 75.6726 25.4577 76.364 25.0807C77.056 24.7037 77.6072 24.1288 78.0182 23.3559C78.4483 22.583 78.663 21.6216 78.663 20.4717C78.663 19.3407 78.4483 18.3888 78.0182 17.6159C77.6072 16.8241 77.056 16.2398 76.364 15.8628C75.6726 15.4857 74.9156 15.2972 74.093 15.2972ZM104.334 12.4414C106.166 12.4414 107.624 13.0257 108.707 14.1945C109.81 15.3632 110.362 17.0315 110.362 19.1993V28.2759H107.165V19.5386C107.165 18.1814 106.829 17.1352 106.156 16.4C105.483 15.646 104.558 15.269 103.38 15.269C102.128 15.269 101.128 15.6743 100.381 16.4848C99.6516 17.2766 99.2871 18.4453 99.2871 19.991V28.2759H96.0909V19.5386C96.0909 18.1814 95.7545 17.1352 95.0816 16.4C94.4087 15.646 93.4835 15.269 92.306 15.269C91.0539 15.269 90.0535 15.6743 89.306 16.4848C88.5771 17.2766 88.2126 18.4453 88.2126 19.991V28.2759H85.0164V12.6959H88.2126V15.9476C88.6051 14.8166 89.2595 13.9495 90.1752 13.3462C91.0908 12.743 92.1658 12.4414 93.3994 12.4414C94.6891 12.4414 95.801 12.7619 96.7358 13.4028C97.689 14.0437 98.3804 14.9674 98.8105 16.1738C99.2591 15.005 99.9785 14.0908 100.969 13.431C101.96 12.7712 103.082 12.4414 104.334 12.4414ZM122.954 12.4979C124.299 12.4979 125.495 12.8184 126.542 13.4593C127.608 14.1002 128.439 15.0239 129.038 16.2303C129.635 17.4368 129.935 18.8506 129.935 20.4717C129.935 22.1117 129.635 23.535 129.038 24.7414C128.439 25.9478 127.608 26.8715 126.542 27.5124C125.495 28.1533 124.299 28.4738 122.954 28.4738C121.552 28.4738 120.355 28.125 119.365 27.4276C118.374 26.7301 117.683 25.8064 117.29 24.6566V35.6841H114.094V12.6959H117.29V16.3152C117.683 15.1653 118.374 14.2416 119.365 13.5441C120.355 12.8467 121.552 12.4979 122.954 12.4979ZM121.972 15.3255C121.075 15.3255 120.271 15.5423 119.561 15.9759C118.851 16.3906 118.29 16.9938 117.879 17.7855C117.467 18.5584 117.262 19.4538 117.262 20.4717C117.262 21.5085 117.467 22.4133 117.879 23.1862C118.29 23.9591 118.851 24.5623 119.561 24.9959C120.271 25.4106 121.075 25.6179 121.972 25.6179C123.393 25.6179 124.533 25.1655 125.393 24.2607C126.252 23.337 126.682 22.074 126.682 20.4717C126.682 18.8883 126.252 17.6347 125.393 16.711C124.533 15.7874 123.393 15.3255 121.972 15.3255ZM139.209 12.4979C140.611 12.4979 141.807 12.8467 142.798 13.5441C143.788 14.2416 144.489 15.1653 144.901 16.3152V12.6959H148.097V28.2759H144.901V24.6566C144.489 25.8064 143.788 26.7301 142.798 27.4276C141.807 28.125 140.611 28.4738 139.209 28.4738C137.864 28.4738 136.658 28.1533 135.593 27.5124C134.546 26.8715 133.723 25.9478 133.125 24.7414C132.527 23.535 132.228 22.1117 132.228 20.4717C132.228 18.8506 132.527 17.4368 133.125 16.2303C133.723 15.0239 134.546 14.1002 135.593 13.4593C136.658 12.8184 137.864 12.4979 139.209 12.4979ZM140.191 15.3255C138.77 15.3255 137.63 15.7874 136.77 16.711C135.929 17.6159 135.509 18.8695 135.509 20.4717C135.509 22.074 135.929 23.337 136.77 24.2607C137.63 25.1655 138.77 25.6179 140.191 25.6179C141.088 25.6179 141.891 25.4106 142.602 24.9959C143.312 24.5623 143.872 23.9591 144.284 23.1862C144.695 22.4133 144.901 21.5085 144.901 20.4717C144.901 19.4538 144.695 18.5584 144.284 17.7855C143.872 16.9938 143.312 16.3906 142.602 15.9759C141.891 15.5423 141.088 15.3255 140.191 15.3255ZM160.568 12.4414C162.362 12.4414 163.801 13.0257 164.886 14.1945C165.969 15.3632 166.512 17.0315 166.512 19.1993V28.2759H163.316V19.5386C163.316 18.1437 162.96 17.0692 162.25 16.3152C161.54 15.5423 160.568 15.1559 159.334 15.1559C158.063 15.1559 157.044 15.5706 156.278 16.4C155.512 17.2106 155.129 18.4076 155.129 19.991V28.2759H151.933V12.6959H155.129V16.1172C155.54 14.9485 156.231 14.0437 157.204 13.4028C158.175 12.7619 159.297 12.4414 160.568 12.4414ZM172.072 12.6959L176.698 24.1476L180.988 12.6959H184.548L175.212 35.6841H171.651L174.988 27.9083L168.483 12.6959H172.072Z" fill="black"/>
<path d="M37.3244 29.4199C35.477 32.9094 32.6452 35.7679 29.187 37.6341C25.7288 39.5004 21.7995 40.2905 17.896 39.9045C13.9926 39.5186 10.2902 37.974 7.25721 35.4659C4.22422 32.9579 1.99676 29.5991 0.856516 25.8143C-0.28373 22.0296 -0.285541 17.9888 0.851312 14.203C1.98816 10.4172 4.21261 7.05634 7.2434 4.54553C10.2741 2.03472 13.9751 0.486686 17.8782 0.0971877C21.7813 -0.292311 25.7113 0.494216 29.1712 2.35731L26.8228 6.79306C24.2329 5.39838 21.2909 4.80961 18.3691 5.10117C15.4474 5.39275 12.6769 6.55157 10.4081 8.4311C8.13935 10.3106 6.4742 12.8265 5.62318 15.6605C4.77216 18.4944 4.77351 21.5193 5.62707 24.3525C6.48064 27.1857 8.1481 29.7 10.4185 31.5774C12.689 33.455 15.4604 34.6112 18.3825 34.9001C21.3045 35.189 24.2459 34.5976 26.8347 33.2005C29.4234 31.8035 31.5433 29.6637 32.9262 27.0516L37.3244 29.4199Z" fill="black"/>
<path d="M20.8566 30.3448C26.3328 30.3448 30.772 25.8677 30.772 20.3448C30.772 14.822 26.3328 10.3448 20.8566 10.3448C15.3805 10.3448 10.9412 14.822 10.9412 20.3448C10.9412 25.8677 15.3805 30.3448 20.8566 30.3448Z" fill="#4CC59A"/>
</g>
<defs>
<clipPath id="clip0_392_172">
<rect width="186" height="40" fill="white"/>
</clipPath>
</defs>
</svg>
