<svg width="38" height="40" viewBox="0 0 38 40" fill="none" xmlns="http://www.w3.org/2000/svg">
<path d="M20.8566 30.3448C26.3328 30.3448 30.772 25.8677 30.772 20.3448C30.772 14.822 26.3328 10.3448 20.8566 10.3448C15.3805 10.3448 10.9412 14.822 10.9412 20.3448C10.9412 25.8677 15.3805 30.3448 20.8566 30.3448Z" fill="#4CC59A"/>
<path d="M37.3244 29.4199C35.477 32.9094 32.6452 35.7679 29.187 37.6342C25.7288 39.5004 21.7995 40.2906 17.896 39.9046C13.9926 39.5186 10.2902 37.974 7.25721 35.4659C4.22422 32.9579 1.99676 29.5991 0.856516 25.8144C-0.28373 22.0296 -0.285541 17.9888 0.851312 14.203C1.98816 10.4172 4.21261 7.05636 7.2434 4.54555C10.2741 2.03474 13.9751 0.486706 17.8782 0.0972077C21.7813 -0.292291 25.7113 0.494236 29.1712 2.35733L26.8228 6.79308C24.2329 5.3984 21.2909 4.80963 18.3691 5.10119C15.4474 5.39277 12.6769 6.55159 10.4081 8.43112C8.13935 10.3106 6.4742 12.8265 5.62318 15.6605C4.77216 18.4944 4.77351 21.5193 5.62707 24.3525C6.48064 27.1857 8.1481 29.7 10.4185 31.5775C12.689 33.455 15.4604 34.6113 18.3825 34.9002C21.3045 35.1891 24.2459 34.5976 26.8347 33.2006C29.4234 31.8035 31.5433 29.6637 32.9262 27.0516L37.3244 29.4199Z" fill="black"/>
</svg>
