<svg width="178" height="38" viewBox="0 0 178 38" fill="none" xmlns="http://www.w3.org/2000/svg">
<g clip-path="url(#clip0_632_10140)">
<path d="M52.1854 7.70942C54.5107 7.70942 56.4426 8.30038 57.9809 9.48231C59.5192 10.6642 60.5567 12.267 61.0933 14.2906H57.8467C57.3996 13.1445 56.684 12.2401 55.7003 11.5776C54.7343 10.897 53.5448 10.5568 52.1318 10.5568C51.0049 10.5568 49.9942 10.8344 49.0999 11.3895C48.2234 11.9446 47.5258 12.7416 47.0071 13.7802C46.5062 14.801 46.2558 16.0008 46.2558 17.3798C46.2558 18.7408 46.5062 19.9406 47.0071 20.9793C47.5258 22 48.2234 22.788 49.0999 23.3431C49.9942 23.8983 51.0049 24.1759 52.1318 24.1759C53.5448 24.1759 54.7343 23.8445 55.7003 23.182C56.684 22.5014 57.3996 21.5971 57.8467 20.4689H61.0933C60.5567 22.4925 59.5192 24.0953 57.9809 25.2772C56.4426 26.4413 54.5107 27.0232 52.1854 27.0232C50.3967 27.0232 48.8137 26.6203 47.4363 25.8145C46.059 24.9907 44.9947 23.8535 44.2435 22.403C43.4922 20.9345 43.1166 19.2601 43.1166 17.3798C43.1166 15.4994 43.4922 13.834 44.2435 12.3834C44.9947 10.915 46.059 9.76882 47.4363 8.94507C48.8137 8.12132 50.3967 7.70942 52.1854 7.70942ZM70.9062 11.873C72.3374 11.873 73.6253 12.1775 74.7698 12.7863C75.915 13.3952 76.809 14.2727 77.4529 15.4188C78.0969 16.5649 78.4188 17.908 78.4188 19.4481C78.4188 21.0061 78.0969 22.3582 77.4529 23.5043C76.809 24.6504 75.915 25.5279 74.7698 26.1368C73.6253 26.7456 72.3374 27.0501 70.9062 27.0501C69.4756 27.0501 68.1877 26.7456 67.0425 26.1368C65.9156 25.5279 65.0216 24.6504 64.3597 23.5043C63.7158 22.3403 63.3938 20.9883 63.3938 19.4481C63.3938 17.908 63.7158 16.5649 64.3597 15.4188C65.0216 14.2727 65.9156 13.3952 67.0425 12.7863C68.1877 12.1775 69.4756 11.873 70.9062 11.873ZM70.9062 14.5324C70.1196 14.5324 69.3951 14.7114 68.7329 15.0696C68.0713 15.4278 67.5346 15.9829 67.123 16.7351C66.7297 17.4693 66.5327 18.3737 66.5327 19.4481C66.5327 20.5405 66.7297 21.4538 67.123 22.1881C67.5346 22.9223 68.0713 23.4685 68.7329 23.8267C69.3951 24.1848 70.1196 24.3639 70.9062 24.3639C71.6934 24.3639 72.4179 24.1848 73.0795 23.8267C73.7417 23.4685 74.2692 22.9223 74.6625 22.1881C75.0741 21.4538 75.2796 20.5405 75.2796 19.4481C75.2796 18.3737 75.0741 17.4693 74.6625 16.7351C74.2692 15.9829 73.7417 15.4278 73.0795 15.0696C72.4179 14.7114 71.6934 14.5324 70.9062 14.5324ZM99.8462 11.8193C101.599 11.8193 102.995 12.3744 104.032 13.4848C105.087 14.5951 105.615 16.1799 105.615 18.2393V26.8621H102.556V18.5617C102.556 17.2723 102.234 16.2784 101.59 15.58C100.946 14.8637 100.061 14.5055 98.934 14.5055C97.7357 14.5055 96.7783 14.8906 96.0631 15.6606C95.3655 16.4127 95.0167 17.523 95.0167 18.9915V26.8621H91.958V18.5617C91.958 17.2723 91.636 16.2784 90.992 15.58C90.3481 14.8637 89.4627 14.5055 88.3358 14.5055C87.1376 14.5055 86.1802 14.8906 85.4649 15.6606C84.7673 16.4127 84.4185 17.523 84.4185 18.9915V26.8621H81.3597V12.0611H84.4185V15.1502C84.7941 14.0757 85.4204 13.252 86.2966 12.6789C87.1729 12.1058 88.2016 11.8193 89.3822 11.8193C90.6164 11.8193 91.6805 12.1238 92.5751 12.7326C93.4873 13.3415 94.1489 14.219 94.5605 15.3651C94.9898 14.2548 95.6783 13.3863 96.6265 12.7595C97.5748 12.1327 98.648 11.8193 99.8462 11.8193ZM117.665 11.873C118.953 11.873 120.098 12.1775 121.1 12.7863C122.119 13.3952 122.915 14.2727 123.488 15.4188C124.059 16.5649 124.346 17.908 124.346 19.4481C124.346 21.0061 124.059 22.3582 123.488 23.5043C122.915 24.6504 122.119 25.5279 121.1 26.1368C120.098 26.7456 118.953 27.0501 117.665 27.0501C116.324 27.0501 115.178 26.7188 114.231 26.0562C113.283 25.3936 112.621 24.5161 112.245 23.4237V33.8999H109.187V12.0611H112.245V15.4994C112.621 14.407 113.283 13.5295 114.231 12.8669C115.178 12.2044 116.324 11.873 117.665 11.873ZM116.726 14.5592C115.868 14.5592 115.098 14.7652 114.419 15.1771C113.739 15.571 113.202 16.1441 112.809 16.8962C112.415 17.6305 112.219 18.4811 112.219 19.4481C112.219 20.4331 112.415 21.2926 112.809 22.0269C113.202 22.7612 113.739 23.3342 114.419 23.7461C115.098 24.14 115.868 24.337 116.726 24.337C118.085 24.337 119.176 23.9072 119.999 23.0477C120.822 22.1702 121.234 20.9703 121.234 19.4481C121.234 17.9439 120.822 16.753 119.999 15.8755C119.176 14.998 118.085 14.5592 116.726 14.5592ZM133.222 11.873C134.563 11.873 135.708 12.2044 136.656 12.8669C137.604 13.5295 138.275 14.407 138.669 15.4994V12.0611H141.727V26.8621H138.669V23.4237C138.275 24.5161 137.604 25.3936 136.656 26.0562C135.708 26.7188 134.563 27.0501 133.222 27.0501C131.934 27.0501 130.78 26.7456 129.761 26.1368C128.759 25.5279 127.972 24.6504 127.4 23.5043C126.827 22.3582 126.541 21.0061 126.541 19.4481C126.541 17.908 126.827 16.5649 127.4 15.4188C127.972 14.2727 128.759 13.3952 129.761 12.7863C130.78 12.1775 131.934 11.873 133.222 11.873ZM134.161 14.5592C132.801 14.5592 131.71 14.998 130.888 15.8755C130.083 16.7351 129.68 17.926 129.68 19.4481C129.68 20.9703 130.083 22.1702 130.888 23.0477C131.71 23.9072 132.801 24.337 134.161 24.337C135.02 24.337 135.788 24.14 136.468 23.7461C137.148 23.3342 137.684 22.7612 138.078 22.0269C138.472 21.2926 138.669 20.4331 138.669 19.4481C138.669 18.4811 138.472 17.6305 138.078 16.8962C137.684 16.1441 137.148 15.571 136.468 15.1771C135.788 14.7652 135.02 14.5592 134.161 14.5592ZM153.662 11.8193C155.379 11.8193 156.756 12.3744 157.794 13.4848C158.831 14.5951 159.35 16.1799 159.35 18.2393V26.8621H156.291V18.5617C156.291 17.2365 155.951 16.2157 155.272 15.4994C154.592 14.7652 153.662 14.3981 152.481 14.3981C151.265 14.3981 150.29 14.792 149.557 15.58C148.823 16.35 148.457 17.4872 148.457 18.9915V26.8621H145.398V12.0611H148.457V15.3114C148.85 14.2011 149.512 13.3415 150.442 12.7326C151.372 12.1238 152.445 11.8193 153.662 11.8193ZM164.671 12.0611L169.098 22.9402L173.203 12.0611H176.611L167.676 33.8999H164.268L167.461 26.5129L161.237 12.0611H164.671Z" fill="white"/>
<path d="M35.719 27.9489C33.9511 31.2639 31.2411 33.9795 27.9317 35.7524C24.6222 37.5254 20.8619 38.276 17.1263 37.9093C13.3908 37.5427 9.84765 36.0753 6.94508 33.6926C4.04254 31.31 1.91088 28.1191 0.819677 24.5236C-0.271526 20.9281 -0.27326 17.0893 0.814697 13.4928C1.90265 9.89631 4.03142 6.70352 6.93186 4.31825C9.83221 1.93298 13.374 0.462352 17.1093 0.0923282C20.8445 -0.277695 24.6054 0.469505 27.9165 2.23945L25.6692 6.4534C23.1906 5.12846 20.3752 4.56913 17.5791 4.84611C14.783 5.12311 12.1317 6.22399 9.96047 8.00954C7.78927 9.79508 6.19574 12.1852 5.38132 14.8775C4.5669 17.5697 4.5682 20.4433 5.38505 23.1349C6.2019 25.8264 7.79764 28.215 9.97042 29.9986C12.1432 31.7822 14.7955 32.8807 17.5918 33.1551C20.3882 33.4296 23.2031 32.8677 25.6805 31.5405C28.1579 30.2133 30.1866 28.1805 31.51 25.699L35.719 27.9489Z" fill="white"/>
<path d="M19.9596 28.8276C25.2002 28.8276 29.4485 24.5743 29.4485 19.3276C29.4485 14.0809 25.2002 9.82759 19.9596 9.82759C14.7189 9.82759 10.4706 14.0809 10.4706 19.3276C10.4706 24.5743 14.7189 28.8276 19.9596 28.8276Z" fill="white"/>
</g>
<defs>
<clipPath id="clip0_632_10140">
<rect width="178" height="38" fill="white"/>
</clipPath>
</defs>
</svg>
