<svg width="86" height="86" viewBox="0 0 86 86" fill="none" xmlns="http://www.w3.org/2000/svg">
<circle cx="43" cy="43" r="43" fill="white"/>
<g clip-path="url(#clip0_417_2293)">
<path d="M56.0786 42.865C60.9302 42.865 64.8632 40.6566 64.8632 37.9325C64.8632 35.2084 60.9302 33 56.0786 33C51.227 33 47.2939 35.2084 47.2939 37.9325C47.2939 40.6566 51.227 42.865 56.0786 42.865Z" fill="#FF864D"/>
<path fill-rule="evenodd" clip-rule="evenodd" d="M56.2099 45.7025C49.9269 45.7025 47.4253 43.1 47.4253 41.5925V48.05C47.4253 50.775 51.3585 52.98 56.2099 52.98C61.0664 52.98 64.9996 50.775 64.9996 48.05V41.7475C64.9996 43.2575 62.4955 45.7025 56.2099 45.7025Z" fill="#FF864D"/>
<path fill-rule="evenodd" clip-rule="evenodd" d="M56.2099 55.68C50.5896 55.68 47.4253 53.1775 47.4253 51.67V58.0675C47.4253 60.7925 51.3585 63 56.2099 63C61.0664 63 64.9996 60.7925 64.9996 58.0675V51.5925C64.9996 53.1 61.8328 55.68 56.2099 55.68Z" fill="#FF864D"/>
<path d="M34.4876 32.865C39.9874 32.865 44.4459 30.6566 44.4459 27.9325C44.4459 25.2084 39.9874 23 34.4876 23C28.9878 23 24.5293 25.2084 24.5293 27.9325C24.5293 30.6566 28.9878 32.865 34.4876 32.865Z" fill="#FF864D"/>
<path fill-rule="evenodd" clip-rule="evenodd" d="M34.804 35.7025C27.6837 35.7025 24.8457 33.1 24.8457 31.5925V38.05C24.8457 40.775 29.3051 42.98 34.804 42.98C40.308 42.98 44.7648 40.775 44.7648 38.05V31.7475C44.7648 33.2575 41.9243 35.7025 34.804 35.7025Z" fill="#FF864D"/>
<path fill-rule="evenodd" clip-rule="evenodd" d="M34.804 45.68C28.4324 45.68 24.8457 43.1775 24.8457 41.67V48.0675C24.8457 50.7925 29.3051 53 34.804 53C40.308 53 44.7648 50.7925 44.7648 48.0675V41.5925C44.7648 43.1 41.1731 45.68 34.804 45.68Z" fill="#FF864D"/>
<path fill-rule="evenodd" clip-rule="evenodd" d="M34.804 55.68C28.4324 55.68 24.8457 53.1775 24.8457 51.67V58.0675C24.8457 60.7925 29.3051 63 34.804 63C40.308 63 44.7648 60.7925 44.7648 58.0675V51.5925C44.7648 53.1 41.1731 55.68 34.804 55.68Z" fill="#FF864D"/>
</g>
<defs>
<clipPath id="clip0_417_2293">
<rect width="43" height="40" fill="white" transform="translate(22 23)"/>
</clipPath>
</defs>
</svg>
