<svg width="20" height="20" viewBox="0 0 20 20" fill="none" xmlns="http://www.w3.org/2000/svg">
<path fill-rule="evenodd" clip-rule="evenodd" d="M4.07692 2H4.01923C3.755 2 3.52769 2 3.32692 2.04731C3.01612 2.12157 2.73194 2.28044 2.50588 2.5063C2.27982 2.73215 2.1207 3.01619 2.04615 3.32692C2 3.52769 2 3.75385 2 4.01923V6.90385C2 7.16808 2 7.39538 2.04731 7.59615C2.12157 7.90696 2.28044 8.19113 2.5063 8.4172C2.73215 8.64326 3.01619 8.80238 3.32692 8.87692C3.52769 8.92308 3.75385 8.92308 4.01923 8.92308H6.90385C7.16808 8.92308 7.39538 8.92308 7.59615 8.87577C7.90696 8.8015 8.19113 8.64264 8.4172 8.41678C8.64326 8.19092 8.80238 7.90689 8.87692 7.59615C8.92308 7.39538 8.92308 7.16923 8.92308 6.90385V4.01923C8.92308 3.755 8.92308 3.52769 8.87577 3.32692C8.8015 3.01612 8.64264 2.73194 8.41678 2.50588C8.19092 2.27982 7.90689 2.1207 7.59615 2.04615C7.39538 2 7.16923 2 6.90385 2H4.07692ZM3.59577 3.17C3.64538 3.15846 3.72269 3.15385 4.07692 3.15385H6.84615C7.20154 3.15385 7.27769 3.15731 7.32731 3.17C7.43096 3.19479 7.52572 3.2478 7.60107 3.32316C7.67643 3.39851 7.72944 3.49327 7.75423 3.59692C7.76577 3.64538 7.76923 3.72154 7.76923 4.07692V6.84615C7.76923 7.20154 7.76577 7.27769 7.75308 7.32731C7.72829 7.43096 7.67528 7.52572 7.59992 7.60107C7.52456 7.67643 7.4298 7.72944 7.32615 7.75423C7.27885 7.76462 7.20269 7.76923 6.84615 7.76923H4.07692C3.72154 7.76923 3.64538 7.76577 3.59577 7.75308C3.49212 7.72829 3.39736 7.67528 3.322 7.59992C3.24664 7.52456 3.19363 7.4298 3.16885 7.32615C3.15846 7.27885 3.15385 7.20269 3.15385 6.84615V4.07692C3.15385 3.72154 3.15731 3.64538 3.17 3.59577C3.19479 3.49212 3.2478 3.39736 3.32316 3.322C3.39851 3.24664 3.49327 3.19363 3.59692 3.16885L3.59577 3.17ZM12.1538 2H12.0962C11.8319 2 11.6046 2 11.4038 2.04731C11.093 2.12157 10.8089 2.28044 10.5828 2.5063C10.3567 2.73215 10.1976 3.01619 10.1231 3.32692C10.0769 3.52769 10.0769 3.75385 10.0769 4.01923V6.90385C10.0769 7.16808 10.0769 7.39538 10.1242 7.59615C10.1985 7.90696 10.3574 8.19113 10.5832 8.4172C10.8091 8.64326 11.0931 8.80238 11.4038 8.87692C11.6046 8.92308 11.8308 8.92308 12.0962 8.92308H14.9808C15.245 8.92308 15.4723 8.92308 15.6731 8.87577C15.9839 8.8015 16.2681 8.64264 16.4941 8.41678C16.7202 8.19092 16.8793 7.90689 16.9538 7.59615C17 7.39538 17 7.16923 17 6.90385V4.01923C17 3.755 17 3.52769 16.9527 3.32692C16.8784 3.01612 16.7196 2.73194 16.4937 2.50588C16.2678 2.27982 15.9838 2.1207 15.6731 2.04615C15.4723 2 15.2462 2 14.9808 2H12.1538ZM11.6727 3.17C11.7223 3.15846 11.7996 3.15385 12.1538 3.15385H14.9231C15.2785 3.15385 15.3546 3.15731 15.4042 3.17C15.5079 3.19479 15.6026 3.2478 15.678 3.32316C15.7534 3.39851 15.8064 3.49327 15.8312 3.59692C15.8427 3.64538 15.8462 3.72154 15.8462 4.07692V6.84615C15.8462 7.20154 15.8415 7.27769 15.83 7.32731C15.8052 7.43096 15.7522 7.52572 15.6768 7.60107C15.6015 7.67643 15.5067 7.72944 15.4031 7.75423C15.3546 7.76577 15.2785 7.76923 14.9231 7.76923H12.1538C11.7985 7.76923 11.7223 7.76577 11.6727 7.75308C11.569 7.72829 11.4743 7.67528 11.3989 7.59992C11.3236 7.52456 11.2706 7.4298 11.2458 7.32615C11.2354 7.27885 11.2308 7.20269 11.2308 6.84615V4.07692C11.2308 3.72154 11.2342 3.64538 11.2469 3.59577C11.2717 3.49212 11.3247 3.39736 11.4001 3.322C11.4754 3.24664 11.5702 3.19363 11.6738 3.16885L11.6727 3.17ZM4.01923 10.0769H6.90385C7.16808 10.0769 7.39538 10.0769 7.59615 10.1242C7.90696 10.1985 8.19113 10.3574 8.4172 10.5832C8.64326 10.8091 8.80238 11.0931 8.87692 11.4038C8.92308 11.6046 8.92308 11.8308 8.92308 12.0962V14.9808C8.92308 15.245 8.92308 15.4723 8.87577 15.6731C8.8015 15.9839 8.64264 16.2681 8.41678 16.4941C8.19092 16.7202 7.90689 16.8793 7.59615 16.9538C7.39538 17 7.16923 17 6.90385 17H4.01923C3.755 17 3.52769 17 3.32692 16.9527C3.01612 16.8784 2.73194 16.7196 2.50588 16.4937C2.27982 16.2678 2.1207 15.9838 2.04615 15.6731C2 15.4723 2 15.2462 2 14.9808V12.0962C2 11.8319 2 11.6046 2.04731 11.4038C2.12157 11.093 2.28044 10.8089 2.5063 10.5828C2.73215 10.3567 3.01619 10.1976 3.32692 10.1231C3.52769 10.0769 3.75385 10.0769 4.01923 10.0769ZM4.07692 11.2308C3.72154 11.2308 3.64538 11.2342 3.59577 11.2469C3.49212 11.2717 3.39736 11.3247 3.322 11.4001C3.24664 11.4754 3.19363 11.5702 3.16885 11.6738C3.15846 11.7212 3.15385 11.7973 3.15385 12.1538V14.9231C3.15385 15.2785 3.15731 15.3546 3.17 15.4042C3.19479 15.5079 3.2478 15.6026 3.32316 15.678C3.39851 15.7534 3.49327 15.8064 3.59692 15.8312C3.64538 15.8427 3.72154 15.8462 4.07692 15.8462H6.84615C7.20154 15.8462 7.27769 15.8415 7.32731 15.83C7.43096 15.8052 7.52572 15.7522 7.60107 15.6768C7.67643 15.6015 7.72944 15.5067 7.75423 15.4031C7.76577 15.3546 7.76923 15.2785 7.76923 14.9231V12.1538C7.76923 11.7985 7.76577 11.7223 7.75308 11.6727C7.72829 11.569 7.67528 11.4743 7.59992 11.3989C7.52456 11.3236 7.4298 11.2706 7.32615 11.2458C7.27885 11.2354 7.20269 11.2308 6.84615 11.2308H4.07692ZM12.1538 10.0769H12.0962C11.8319 10.0769 11.6046 10.0769 11.4038 10.1242C11.093 10.1985 10.8089 10.3574 10.5828 10.5832C10.3567 10.8091 10.1976 11.0931 10.1231 11.4038C10.0769 11.6046 10.0769 11.8308 10.0769 12.0962V14.9808C10.0769 15.245 10.0769 15.4723 10.1242 15.6731C10.1985 15.9839 10.3574 16.2681 10.5832 16.4941C10.8091 16.7202 11.0931 16.8793 11.4038 16.9538C11.6046 17.0012 11.8319 17.0012 12.0962 17.0012H14.9808C15.245 17.0012 15.4723 17.0012 15.6731 16.9538C15.9837 16.8794 16.2676 16.7204 16.4934 16.4946C16.7193 16.2688 16.8782 15.9848 16.9527 15.6742C17 15.4735 17 15.2462 17 14.9819V12.0962C17 11.8319 17 11.6046 16.9527 11.4038C16.8784 11.093 16.7196 10.8089 16.4937 10.5828C16.2678 10.3567 15.9838 10.1976 15.6731 10.1231C15.4723 10.0769 15.2462 10.0769 14.9808 10.0769H12.1538ZM11.6727 11.2469C11.7223 11.2354 11.7996 11.2308 12.1538 11.2308H14.9231C15.2785 11.2308 15.3546 11.2342 15.4042 11.2469C15.5079 11.2717 15.6026 11.3247 15.678 11.4001C15.7534 11.4754 15.8064 11.5702 15.8312 11.6738C15.8427 11.7223 15.8462 11.7985 15.8462 12.1538V14.9231C15.8462 15.2785 15.8415 15.3546 15.83 15.4042C15.8052 15.5079 15.7522 15.6026 15.6768 15.678C15.6015 15.7534 15.5067 15.8064 15.4031 15.8312C15.3546 15.8427 15.2785 15.8462 14.9231 15.8462H12.1538C11.7985 15.8462 11.7223 15.8415 11.6727 15.83C11.569 15.8052 11.4743 15.7522 11.3989 15.6768C11.3236 15.6015 11.2706 15.5067 11.2458 15.4031C11.2354 15.3558 11.2308 15.2796 11.2308 14.9231V12.1538C11.2308 11.7985 11.2342 11.7223 11.2469 11.6727C11.2717 11.569 11.3247 11.4743 11.4001 11.3989C11.4754 11.3236 11.5702 11.2706 11.6738 11.2458L11.6727 11.2469Z" fill="white"/>
</svg>
