<svg width="25" height="25" viewBox="0 0 25 25" fill="none" xmlns="http://www.w3.org/2000/svg">
<path d="M18.75 8.75C18.75 6.98229 18.0917 5.28646 16.9198 4.03646C15.7469 2.78646 14.1562 2.08334 12.5 2.08334C10.8427 2.08334 9.25312 2.78542 8.08021 4.03646C6.90833 5.28646 6.25 6.98229 6.25 8.75C6.25 16.5281 3.125 18.75 3.125 18.75H21.875C21.875 18.75 18.75 16.5281 18.75 8.75Z" stroke="#9C9C9C" stroke-width="1.25" stroke-linecap="round" stroke-linejoin="round"/>
<path d="M14.3019 21.875C14.119 22.191 13.8562 22.4533 13.5399 22.6357C13.2236 22.818 12.8649 22.914 12.4998 22.914C12.1347 22.914 11.7761 22.818 11.4598 22.6357C11.1435 22.4533 10.8807 22.191 10.6978 21.875" stroke="#9C9C9C" stroke-width="1.25" stroke-linecap="round" stroke-linejoin="round"/>
</svg>
