<svg width="13" height="7" viewBox="0 0 13 7" fill="none" xmlns="http://www.w3.org/2000/svg">
<path d="M6.40548 5.91765L6.37685 6.33333L6.37603 5.91667C6.27876 5.91686 6.18449 5.88304 6.10955 5.8211C6.10943 5.821 6.10931 5.8209 6.10919 5.8208L1.10884 1.65488L1.10843 1.65453C1.0232 1.58371 0.969619 1.48196 0.959449 1.37167C0.949278 1.26139 0.983342 1.15157 1.05417 1.06637C1.12501 0.981171 1.22682 0.927567 1.33722 0.917391C1.44747 0.907229 1.55722 0.941206 1.6424 1.01183C1.64253 1.01193 1.64265 1.01203 1.64277 1.01213L6.10967 4.74473L6.37204 4.96397L6.63828 4.74945L11.1061 1.14945L11.1073 1.14848C11.1499 1.11386 11.199 1.08801 11.2516 1.0724C11.3043 1.0568 11.3596 1.05176 11.4142 1.05757C11.4688 1.06338 11.5218 1.07993 11.57 1.10626C11.6182 1.13259 11.6607 1.16818 11.6951 1.21099L11.7018 1.21925L11.7088 1.22717C11.747 1.27001 11.7759 1.32027 11.7937 1.37479C11.8115 1.42931 11.8179 1.48692 11.8124 1.54402C11.807 1.60111 11.7898 1.65647 11.7619 1.70661C11.734 1.75675 11.6961 1.80061 11.6505 1.83543L11.6504 1.83532L11.642 1.84207L6.65632 5.85453C6.58163 5.90155 6.4938 5.92373 6.40548 5.91765Z" fill="white" stroke="#4B4B4B" stroke-width="0.833333"/>
</svg>
