<svg width="20" height="20" viewBox="0 0 20 20" fill="none" xmlns="http://www.w3.org/2000/svg">
<path d="M10.0285 12.9177L9.9999 13.3333L9.99909 12.9167C9.9019 12.9169 9.80771 12.8831 9.73281 12.8212C9.73268 12.821 9.73255 12.8209 9.73242 12.8208L4.73331 8.65491L4.7329 8.65457C4.64771 8.58375 4.59413 8.482 4.58396 8.37168C4.57379 8.26137 4.60786 8.15153 4.67867 8.06633C4.74948 7.98114 4.85124 7.92756 4.96155 7.91739C5.07171 7.90723 5.1814 7.94119 5.26654 8.0118C5.26666 8.0119 5.26678 8.012 5.2669 8.0121L9.73269 11.7447L9.9951 11.964L10.2614 11.7494L14.728 8.14942L14.7292 8.14845C14.7719 8.11383 14.8209 8.08799 14.8735 8.07239C14.9262 8.0568 14.9814 8.05176 15.036 8.05756C15.0906 8.06337 15.1435 8.07991 15.1917 8.10623C15.2398 8.13256 15.2823 8.16814 15.3167 8.21095L15.3234 8.21921L15.3304 8.22713C15.3686 8.26997 15.3975 8.32023 15.4153 8.37476C15.4331 8.42929 15.4395 8.48691 15.434 8.54403C15.4286 8.60114 15.4114 8.6565 15.3835 8.70665C15.3556 8.75679 15.3177 8.80065 15.2721 8.83546L15.272 8.83535L15.2636 8.8421L10.2792 12.8546C10.2046 12.9016 10.1168 12.9237 10.0285 12.9177Z" fill="white" stroke="#4B4B4B" stroke-width="0.833333"/>
</svg>
