<svg width="25" height="25" viewBox="0 0 25 25" fill="none" xmlns="http://www.w3.org/2000/svg">
<path d="M11.3283 12.5C11.3283 12.8108 11.4517 13.1089 11.6715 13.3286C11.8913 13.5484 12.1893 13.6719 12.5001 13.6719C12.8109 13.6719 13.109 13.5484 13.3288 13.3286C13.5485 13.1089 13.672 12.8108 13.672 12.5C13.672 12.1892 13.5485 11.8911 13.3288 11.6714C13.109 11.4516 12.8109 11.3281 12.5001 11.3281C12.1893 11.3281 11.8913 11.4516 11.6715 11.6714C11.4517 11.8911 11.3283 12.1892 11.3283 12.5ZM16.2111 12.5C16.2111 12.8108 16.3345 13.1089 16.5543 13.3286C16.7741 13.5484 17.0721 13.6719 17.3829 13.6719C17.6938 13.6719 17.9918 13.5484 18.2116 13.3286C18.4314 13.1089 18.5548 12.8108 18.5548 12.5C18.5548 12.1892 18.4314 11.8911 18.2116 11.6714C17.9918 11.4516 17.6938 11.3281 17.3829 11.3281C17.0721 11.3281 16.7741 11.4516 16.5543 11.6714C16.3345 11.8911 16.2111 12.1892 16.2111 12.5ZM6.44545 12.5C6.44545 12.8108 6.56892 13.1089 6.78868 13.3286C7.00845 13.5484 7.30653 13.6719 7.61733 13.6719C7.92813 13.6719 8.2262 13.5484 8.44597 13.3286C8.66574 13.1089 8.7892 12.8108 8.7892 12.5C8.7892 12.1892 8.66574 11.8911 8.44597 11.6714C8.2262 11.4516 7.92813 11.3281 7.61733 11.3281C7.30653 11.3281 7.00845 11.4516 6.78868 11.6714C6.56892 11.8911 6.44545 12.1892 6.44545 12.5ZM22.588 8.26172C22.0363 6.95068 21.2453 5.77393 20.237 4.76318C19.2357 3.75829 18.0471 2.95953 16.7384 2.41211C15.3956 1.84814 13.9699 1.5625 12.5001 1.5625H12.4513C10.9718 1.56982 9.53871 1.86279 8.19106 2.43896C6.89359 2.992 5.71611 3.79218 4.72426 4.79492C3.72572 5.80322 2.94203 6.9751 2.40004 8.28125C1.83852 9.63379 1.55531 11.0718 1.56264 12.5513C1.57092 14.2468 1.97204 15.9173 2.73451 17.4316V21.1426C2.73451 21.4404 2.85283 21.7261 3.06345 21.9367C3.27406 22.1473 3.55971 22.2656 3.85756 22.2656H7.57094C9.08533 23.0281 10.7558 23.4292 12.4513 23.4375H12.5026C13.965 23.4375 15.3834 23.1543 16.7189 22.6001C18.021 22.0592 19.2051 21.2698 20.2052 20.2759C21.2135 19.2773 22.007 18.1104 22.5612 16.8091C23.1373 15.4614 23.4303 14.0283 23.4376 12.5488C23.445 11.062 23.1569 9.61914 22.588 8.26172ZM18.8991 18.9551C17.1876 20.6494 14.9171 21.582 12.5001 21.582H12.4586C10.9865 21.5747 9.52406 21.2085 8.23256 20.52L8.02748 20.4102H4.58998V16.9727L4.48012 16.7676C3.79164 15.4761 3.42543 14.0137 3.41811 12.5415C3.40834 10.1074 4.33852 7.82227 6.04506 6.10107C7.74916 4.37988 10.027 3.42773 12.4611 3.41797H12.5026C13.7233 3.41797 14.9074 3.65478 16.0231 4.12353C17.112 4.58008 18.0885 5.23682 18.9284 6.07666C19.7658 6.91406 20.4249 7.89307 20.8815 8.98193C21.3551 10.1099 21.5919 11.3062 21.5871 12.5415C21.5724 14.9731 20.6178 17.251 18.8991 18.9551Z" fill="#9C9C9C"/>
</svg>
