<svg width="89" height="89" viewBox="0 0 89 89" fill="none" xmlns="http://www.w3.org/2000/svg">
<circle cx="44.2462" cy="44.2844" r="41.7655" transform="rotate(-2.8193 44.2462 44.2844)" fill="white"/>
<path d="M50.1049 39.9347C52.7895 39.8849 55.3842 40.9026 57.319 42.7645C59.2537 44.6264 60.3703 47.1801 60.4235 49.8647C60.5302 55.423 56.2605 60.0726 50.6481 60.1804C47.9635 60.2302 45.3688 59.2125 43.434 57.3506C41.4993 55.4887 40.3827 52.935 40.3295 50.2504C40.3137 49.4296 40.4157 48.6174 40.5988 47.8454C40.0989 47.8366 39.622 47.6345 39.2681 47.2814C38.9141 46.9284 38.7108 46.4519 38.7007 45.9521L38.6488 43.2472L35.9438 43.2991C34.8773 43.3196 33.9951 42.4706 33.9746 41.4041L33.9227 38.6991L31.9906 38.7362C31.2732 38.75 30.5797 38.4782 30.0627 37.9806C29.5457 37.4831 29.2475 36.8005 29.2337 36.0831L29.1595 32.2189C29.1458 31.5015 29.4176 30.808 29.9151 30.291C30.4126 29.774 31.0952 29.4758 31.8126 29.462L35.1698 29.3976C36.2982 29.3759 37.3872 29.8034 38.1986 30.5857L48.0225 40.0366C48.0729 40.0826 48.1337 40.1158 48.1997 40.1334C48.2658 40.151 48.335 40.1524 48.4017 40.1375C48.9625 40.0207 49.5323 39.9528 50.1049 39.9347V39.9347ZM52.8539 54.2622C53.3663 54.2524 53.8539 54.0394 54.2093 53.6701C54.5646 53.3008 54.7588 52.8054 54.7489 52.293C54.7391 51.7806 54.5261 51.2931 54.1568 50.9377C53.7875 50.5823 53.2922 50.3882 52.7797 50.398C52.2673 50.4078 51.7798 50.6208 51.4244 50.9901C51.069 51.3594 50.8749 51.8548 50.8847 52.3672C50.8945 52.8796 51.1075 53.3672 51.4768 53.7225C51.8461 54.0779 52.3415 54.2721 52.8539 54.2622V54.2622Z" fill="#FF3232"/>
</svg>
