<svg width="20" height="20" viewBox="0 0 20 20" fill="none" xmlns="http://www.w3.org/2000/svg">
<path d="M18.5669 12.0581L16.6919 10.1831C16.5747 10.066 16.4157 10.0001 16.25 10.0001C16.0843 10.0001 15.9253 10.066 15.8081 10.1831L10 15.9913V18.75H12.7587L18.5669 12.9419C18.684 12.8247 18.7499 12.6657 18.7499 12.5C18.7499 12.3343 18.684 12.1753 18.5669 12.0581ZM12.2413 17.5H11.25V16.5088L14.375 13.3838L15.3663 14.375L12.2413 17.5ZM16.25 13.4913L15.2587 12.5L16.25 11.5088L17.2413 12.5L16.25 13.4913Z" fill="white"/>
<path d="M12.5 8.125V6.875H11.1612C11.103 6.65129 11.0136 6.4369 10.8956 6.23812L11.8438 5.29L10.96 4.40625L10.0119 5.35438C9.81309 5.23641 9.5987 5.14699 9.375 5.08875V3.75H8.125V5.08875C7.9013 5.14699 7.68691 5.23641 7.48812 5.35438L6.54 4.40625L5.65625 5.29L6.60438 6.23812C6.48638 6.4369 6.39696 6.65129 6.33875 6.875H5V8.125H6.33875C6.39696 8.34871 6.48638 8.5631 6.60438 8.76188L5.65625 9.71L6.54 10.5938L7.48812 9.64562C7.68691 9.76359 7.9013 9.85301 8.125 9.91125V11.25H9.375V9.91125C9.5987 9.85301 9.81309 9.76359 10.0119 9.64562L10.96 10.5938L11.8438 9.71L10.8956 8.76188C11.0136 8.5631 11.103 8.34871 11.1612 8.125H12.5ZM8.75 8.75C8.50277 8.75 8.2611 8.67669 8.05554 8.53934C7.84998 8.40199 7.68976 8.20676 7.59515 7.97835C7.50054 7.74995 7.47579 7.49861 7.52402 7.25614C7.57225 7.01366 7.6913 6.79093 7.86612 6.61612C8.04093 6.4413 8.26366 6.32225 8.50614 6.27402C8.74861 6.22579 8.99995 6.25054 9.22835 6.34515C9.45676 6.43976 9.65199 6.59998 9.78934 6.80554C9.92669 7.0111 10 7.25277 10 7.5C9.99967 7.83142 9.86787 8.14917 9.63352 8.38352C9.39917 8.61787 9.08142 8.74967 8.75 8.75Z" fill="white"/>
<path d="M7.5 18.75H3.75C3.41858 18.7497 3.10083 18.6179 2.86648 18.3835C2.63213 18.1492 2.50033 17.8314 2.5 17.5V2.5C2.50033 2.16858 2.63213 1.85083 2.86648 1.61648C3.10083 1.38213 3.41858 1.25033 3.75 1.25H13.75C14.0814 1.25033 14.3992 1.38213 14.6335 1.61648C14.8679 1.85083 14.9997 2.16858 15 2.5V8.75H13.75V2.5H3.75V17.5H7.5V18.75Z" fill="white"/>
</svg>
