<svg width="20" height="20" viewBox="0 0 20 20" fill="none" xmlns="http://www.w3.org/2000/svg">
<path d="M17.8417 9.64999L10.3417 2.14999C10.0417 1.84999 9.62508 1.66666 9.16675 1.66666H3.33341C2.41675 1.66666 1.66675 2.41666 1.66675 3.33332V9.16666C1.66675 9.62499 1.85008 10.0417 2.15841 10.35L9.65841 17.85C9.95841 18.15 10.3751 18.3333 10.8334 18.3333C11.2917 18.3333 11.7084 18.15 12.0084 17.8417L17.8417 12.0083C18.1501 11.7083 18.3334 11.2917 18.3334 10.8333C18.3334 10.375 18.1417 9.94999 17.8417 9.64999ZM10.8334 16.675L3.33341 9.16666V3.33332H9.16675V3.32499L16.6667 10.825L10.8334 16.675V16.675Z" fill="white"/>
<path d="M5.41675 6.66666C6.1071 6.66666 6.66675 6.10701 6.66675 5.41666C6.66675 4.7263 6.1071 4.16666 5.41675 4.16666C4.72639 4.16666 4.16675 4.7263 4.16675 5.41666C4.16675 6.10701 4.72639 6.66666 5.41675 6.66666Z" fill="white"/>
</svg>
