<svg width="86" height="86" viewBox="0 0 86 86" fill="none" xmlns="http://www.w3.org/2000/svg">
<circle cx="43" cy="43" r="43" fill="white"/>
<path d="M32.0001 59.5H26.5001C26.0139 59.5 25.5475 59.3069 25.2037 58.963C24.8599 58.6192 24.6667 58.1529 24.6667 57.6667V43C24.6667 42.5138 24.8599 42.0475 25.2037 41.7036C25.5475 41.3598 26.0139 41.1667 26.5001 41.1667H32.0001C32.4863 41.1667 32.9526 41.3598 33.2964 41.7036C33.6403 42.0475 33.8334 42.5138 33.8334 43V57.6667C33.8334 58.1529 33.6403 58.6192 33.2964 58.963C32.9526 59.3069 32.4863 59.5 32.0001 59.5ZM44.8334 59.5H39.3334C38.8472 59.5 38.3809 59.3069 38.0371 58.963C37.6932 58.6192 37.5001 58.1529 37.5001 57.6667V26.5C37.5001 26.0138 37.6932 25.5475 38.0371 25.2036C38.3809 24.8598 38.8472 24.6667 39.3334 24.6667H44.8334C45.3196 24.6667 45.786 24.8598 46.1298 25.2036C46.4736 25.5475 46.6667 26.0138 46.6667 26.5V57.6667C46.6667 58.1529 46.4736 58.6192 46.1298 58.963C45.786 59.3069 45.3196 59.5 44.8334 59.5ZM57.6668 59.5H52.1668C51.6805 59.5 51.2142 59.3069 50.8704 58.963C50.5266 58.6192 50.3334 58.1529 50.3334 57.6667V37.5C50.3334 37.0138 50.5266 36.5475 50.8704 36.2036C51.2142 35.8598 51.6805 35.6667 52.1668 35.6667H57.6668C58.153 35.6667 58.6193 35.8598 58.9631 36.2036C59.3069 36.5475 59.5001 37.0138 59.5001 37.5V57.6667C59.5001 58.1529 59.3069 58.6192 58.9631 58.963C58.6193 59.3069 58.153 59.5 57.6668 59.5Z" fill="#46AEFF"/>
</svg>
