<svg width="12" height="7" viewBox="0 0 12 7" fill="none" xmlns="http://www.w3.org/2000/svg">
<path d="M6.14737 6.41622C5.95265 6.41661 5.76396 6.34879 5.61403 6.22456L0.614032 2.05789C0.443851 1.91644 0.336831 1.71318 0.316515 1.49283C0.296198 1.27247 0.36425 1.05307 0.505698 0.882891C0.647147 0.712711 0.850407 0.605691 1.07076 0.585374C1.29112 0.565058 1.51052 0.633109 1.6807 0.774558L6.14737 4.50789L10.614 0.907892C10.6993 0.83867 10.7974 0.786977 10.9026 0.755784C11.0079 0.724591 11.1183 0.714513 11.2275 0.726129C11.3367 0.737745 11.4425 0.770825 11.5389 0.82347C11.6353 0.876115 11.7203 0.947286 11.789 1.03289C11.8653 1.11858 11.9231 1.2191 11.9588 1.32816C11.9945 1.43722 12.0072 1.55247 11.9963 1.66669C11.9853 1.78091 11.9509 1.89164 11.8952 1.99193C11.8394 2.09223 11.7636 2.17994 11.6724 2.24956L6.67237 6.27456C6.51813 6.37915 6.33328 6.42903 6.14737 6.41622Z" fill="#9C9C9C"/>
</svg>
