<svg width="20" height="20" viewBox="0 0 20 20" fill="none" xmlns="http://www.w3.org/2000/svg">
<path d="M9.57617 6.5625C8.8963 6.5625 8.23169 6.76411 7.6664 7.14182C7.10111 7.51954 6.66051 8.0564 6.40034 8.68453C6.14016 9.31265 6.07209 10.0038 6.20472 10.6706C6.33736 11.3374 6.66475 11.9499 7.14549 12.4307C7.62624 12.9114 8.23874 13.2388 8.90555 13.3714C9.57236 13.5041 10.2635 13.436 10.8916 13.1758C11.5198 12.9157 12.0566 12.4751 12.4343 11.9098C12.8121 11.3445 13.0137 10.6799 13.0137 10C13.0126 9.08864 12.6501 8.21489 12.0057 7.57046C11.3613 6.92603 10.4875 6.56353 9.57617 6.5625V6.5625ZM9.57617 12.1875C9.14353 12.1875 8.7206 12.0592 8.36086 11.8188C8.00113 11.5785 7.72075 11.2368 7.55519 10.8371C7.38962 10.4374 7.3463 9.99757 7.43071 9.57324C7.51511 9.14891 7.72345 8.75913 8.02938 8.4532C8.33531 8.14728 8.72508 7.93894 9.14941 7.85453C9.57375 7.77013 10.0136 7.81345 10.4133 7.97901C10.813 8.14458 11.1546 8.42496 11.395 8.78469C11.6354 9.14442 11.7637 9.56735 11.7637 10C11.763 10.58 11.5323 11.136 11.1223 11.5461C10.7122 11.9562 10.1561 12.1868 9.57617 12.1875V12.1875Z" fill="white"/>
<path d="M18.1524 12.5906L16.9114 11.569C17.1314 10.5346 17.1314 9.46544 16.9114 8.43102L18.1524 7.40942C18.2956 7.29214 18.3923 7.12775 18.4253 6.94567C18.4582 6.76359 18.4253 6.57572 18.3324 6.41571L17.0585 4.20934C16.9664 4.0488 16.8201 3.92631 16.6459 3.86382C16.4717 3.80133 16.2809 3.80293 16.1078 3.86832L14.6015 4.43266C13.8168 3.7237 12.8911 3.18867 11.8851 2.86266L11.6208 1.27785C11.5909 1.09521 11.4969 0.929195 11.3557 0.809561C11.2145 0.689928 11.0353 0.624499 10.8502 0.625003H8.30244C8.11738 0.624506 7.93818 0.689932 7.79697 0.809556C7.65575 0.92918 7.56176 1.09518 7.53182 1.27782L7.26768 2.86266C6.26166 3.18866 5.33595 3.7237 4.55127 4.43266L3.04483 3.86825C2.8717 3.80289 2.68096 3.80132 2.50678 3.86382C2.3326 3.92631 2.18637 4.04879 2.09428 4.2093L0.820414 6.41582C0.727508 6.57585 0.694607 6.76372 0.727604 6.9458C0.7606 7.12787 0.857338 7.29225 1.00049 7.4095L2.24139 8.43102C2.02139 9.46544 2.02139 10.5346 2.24139 11.569L1.00038 12.5906C0.857244 12.7079 0.760532 12.8723 0.727558 13.0543C0.694584 13.2364 0.727501 13.4243 0.820414 13.5843L2.09432 15.7907C2.18642 15.9512 2.33267 16.0737 2.50688 16.1362C2.68108 16.1987 2.87185 16.1971 3.04498 16.1317L4.55131 15.5673C5.33599 16.2763 6.2617 16.8113 7.26772 17.1373L7.53186 18.7222C7.56179 18.9048 7.65577 19.0708 7.79698 19.1904C7.93818 19.3101 8.11738 19.3755 8.30244 19.375H10.8502C11.0352 19.3755 11.2145 19.3101 11.3557 19.1905C11.4969 19.0708 11.5909 18.9048 11.6208 18.7222L11.885 17.1373C12.891 16.8113 13.8167 16.2763 14.6014 15.5673L16.1078 16.1318C16.2809 16.1971 16.4717 16.1987 16.6458 16.1362C16.82 16.0737 16.9662 15.9512 17.0583 15.7907L18.3321 13.5842C18.4251 13.4242 18.458 13.2364 18.4251 13.0543C18.3922 12.8723 18.2955 12.7079 18.1524 12.5906V12.5906ZM16.1745 14.8218L14.2952 14.1178L14.0106 14.4043C13.2277 15.1934 12.2484 15.7594 11.1737 16.0438L10.7831 16.1468L10.4532 18.125H8.69971L8.36994 16.1468L7.97932 16.0438C6.90467 15.7594 5.92535 15.1934 5.14241 14.4043L4.85784 14.1178L2.97827 14.8218L2.10166 13.3032L3.64967 12.0288L3.5442 11.6393C3.25416 10.5657 3.25416 9.43434 3.5442 8.36075L3.64967 7.97121L2.10166 6.69684L2.97846 5.17817L4.85772 5.88223L5.14229 5.59575C5.92524 4.80659 6.90455 4.2406 7.9792 3.95617L8.36983 3.85321L8.69955 1.875H10.4532L10.783 3.85321L11.1736 3.95617C12.2483 4.2406 13.2276 4.80659 14.0105 5.59575L14.2951 5.88223L16.1744 5.17817L17.0512 6.6968L15.5032 7.97121L15.6087 8.36075C15.8987 9.43434 15.8987 10.5657 15.6087 11.6393L15.5032 12.0288L17.0512 13.3032L16.1745 14.8218Z" fill="white"/>
</svg>
