<svg width="20" height="21" viewBox="0 0 20 21" fill="none" xmlns="http://www.w3.org/2000/svg">
<path d="M10.123 9.4037C10.1084 9.38503 10.0897 9.36992 10.0684 9.35954C10.0471 9.34915 10.0237 9.34375 9.99994 9.34375C9.97623 9.34375 9.95283 9.34915 9.93151 9.35954C9.91019 9.36992 9.89151 9.38503 9.8769 9.4037L7.6894 12.1713C7.67136 12.1943 7.66017 12.2219 7.65711 12.251C7.65404 12.2801 7.65922 12.3095 7.67206 12.3358C7.6849 12.3621 7.70487 12.3842 7.72969 12.3997C7.75452 12.4151 7.7832 12.4233 7.81245 12.4232H9.2558V17.1576C9.2558 17.2435 9.32612 17.3139 9.41205 17.3139H10.5839C10.6699 17.3139 10.7402 17.2435 10.7402 17.1576V12.4252H12.1874C12.3183 12.4252 12.3906 12.2748 12.3105 12.1732L10.123 9.4037Z" fill="#6D6D6D"/>
<path d="M15.8477 7.66211C14.9531 5.30273 12.6738 3.625 10.0039 3.625C7.33398 3.625 5.05469 5.30078 4.16016 7.66016C2.48633 8.09961 1.25 9.625 1.25 11.4375C1.25 13.5957 2.99805 15.3438 5.1543 15.3438H5.9375C6.02344 15.3438 6.09375 15.2734 6.09375 15.1875V14.0156C6.09375 13.9297 6.02344 13.8594 5.9375 13.8594H5.1543C4.49609 13.8594 3.87695 13.5977 3.41602 13.123C2.95703 12.6504 2.71289 12.0137 2.73438 11.3535C2.75195 10.8379 2.92773 10.3535 3.24609 9.94531C3.57227 9.5293 4.0293 9.22656 4.53711 9.0918L5.27734 8.89844L5.54883 8.18359C5.7168 7.73828 5.95117 7.32227 6.24609 6.94531C6.53725 6.57169 6.88214 6.24326 7.26953 5.9707C8.07227 5.40625 9.01758 5.10742 10.0039 5.10742C10.9902 5.10742 11.9355 5.40625 12.7383 5.9707C13.127 6.24414 13.4707 6.57227 13.7617 6.94531C14.0566 7.32227 14.291 7.74023 14.459 8.18359L14.7285 8.89648L15.4668 9.0918C16.5254 9.37695 17.2656 10.3398 17.2656 11.4375C17.2656 12.084 17.0137 12.6934 16.5566 13.1504C16.3325 13.3758 16.0659 13.5546 15.7722 13.6763C15.4785 13.798 15.1636 13.8602 14.8457 13.8594H14.0625C13.9766 13.8594 13.9062 13.9297 13.9062 14.0156V15.1875C13.9062 15.2734 13.9766 15.3438 14.0625 15.3438H14.8457C17.002 15.3438 18.75 13.5957 18.75 11.4375C18.75 9.62695 17.5176 8.10352 15.8477 7.66211Z" fill="#6D6D6D"/>
</svg>
