<svg width="86" height="86" viewBox="0 0 86 86" fill="none" xmlns="http://www.w3.org/2000/svg">
<circle cx="43" cy="43" r="43" fill="white"/>
<path d="M58 33H26.75V31.75L54.25 29.55V31.75H58V28C58 25.25 55.7725 23.32 53.0525 23.7075L27.95 27.2925C25.2275 27.6825 23 30.25 23 33V58C23 59.3261 23.5268 60.5978 24.4645 61.5355C25.4021 62.4732 26.6739 63 28 63H58C59.3261 63 60.5978 62.4732 61.5355 61.5355C62.4732 60.5978 63 59.3261 63 58V38C63 36.6739 62.4732 35.4021 61.5355 34.4645C60.5978 33.5268 59.3261 33 58 33ZM54.25 50.515C53.7574 50.5148 53.2696 50.4176 52.8146 50.229C52.3595 50.0403 51.946 49.7638 51.5978 49.4154C51.2496 49.0669 50.9734 48.6533 50.7851 48.1981C50.5967 47.7429 50.4998 47.2551 50.5 46.7625C50.5002 46.2699 50.5974 45.7821 50.786 45.3271C50.9747 44.872 51.2511 44.4585 51.5996 44.1103C51.948 43.7621 52.3617 43.4859 52.8169 43.2976C53.272 43.1092 53.7599 43.0123 54.2525 43.0125C55.2474 43.0128 56.2014 43.4084 56.9047 44.1121C57.6079 44.8158 58.0028 45.7701 58.0025 46.765C58.0022 47.7599 57.6066 48.7139 56.9029 49.4172C56.1992 50.1204 55.2449 50.5153 54.25 50.515Z" fill="#AE70FF"/>
</svg>
